<svg width="1440" height="900" viewBox="0 0 1440 900" fill="none" xmlns="http://www.w3.org/2000/svg">
<g clip-path="url(#clip0_0_9)">
<rect width="1440" height="900" fill="white"/>
<path d="M0 0H1440V295L0 601V0Z" fill="#F7FAFC"/>
<line opacity="0.7" x1="180.5" y1="-2.18557e-08" x2="180.5" y2="900" stroke="#E3E8EE"/>
<line opacity="0.7" x1="1260.5" y1="-2.18557e-08" x2="1260.5" y2="900" stroke="#E3E8EE"/>
<line opacity="0.7" x1="450.5" y1="-2.18557e-08" x2="450.5" y2="900" stroke="#E3E8EE" stroke-dasharray="4 5"/>
<line opacity="0.7" x1="989.5" y1="-2.18557e-08" x2="989.5" y2="900" stroke="#E3E8EE" stroke-dasharray="4 5"/>
<path d="M21 606.5V566.5L180 533V573L21 606.5Z" fill="#81E9FF"/>
<path d="M0 639V599.5L314.5 532V572L0 639Z" fill="#4CBB17" fill-opacity="0.5"/>
<path d="M1126 362V322.5L1440.5 255V295L1126 362Z" fill="#4CBB17" fill-opacity="0.5"/>
<rect x="395" y="87" width="726" height="726" rx="10" fill="white"/>
<path fill-rule="evenodd" clip-rule="evenodd" d="M758.407 354.216C760.646 376.54 747.813 385.85 744.177 388.016C744.207 388.247 744.222 388.493 744.222 388.739V420.588L750.203 423.953H781.652C781.712 423.953 781.787 423.953 781.848 423.968C789.09 424.982 789.376 416.225 789.376 415.134C789.331 414.581 789.631 414.028 790.157 413.797C794.695 411.8 792.772 405.531 792.591 404.994C792.351 404.364 792.636 403.642 793.237 403.334C799.128 400.415 795.416 395.161 794.935 394.5C794.545 394.07 794.485 393.409 794.8 392.887C805.469 376.155 772.141 380.288 770.007 380.565C769.842 380.596 769.661 380.611 769.481 380.565C768.775 380.427 768.324 379.735 768.459 379.013C773.433 353.248 761.968 353.524 758.377 354.185L758.407 354.216Z" fill="#4CBB17"/>
<path fill-rule="evenodd" clip-rule="evenodd" d="M742.088 420.972V388.739C742.088 387.97 741.788 387.279 741.292 386.787C740.796 386.28 740.12 385.973 739.384 385.973H722.705C721.953 385.973 721.277 386.28 720.796 386.787C720.301 387.294 720 387.986 720 388.739V420.972C720 421.74 720.301 422.432 720.796 422.923C721.292 423.43 721.968 423.738 722.705 423.738H739.384C740.135 423.738 740.811 423.43 741.292 422.923C741.698 422.509 741.968 421.971 742.058 421.372C742.058 421.28 742.058 421.172 742.088 421.08C742.088 421.049 742.088 421.003 742.088 420.972Z" fill="#4CBB17"/>
<path opacity="0.1" d="M781.768 285.658C780.908 285.418 780.05 285.428 779.069 285.439C778.824 285.442 778.579 285.445 778.334 285.448C779.547 284.306 780.761 283.165 781.605 281.778C781.846 281.399 781.351 281.029 781.109 281.282C779.65 282.427 778.315 283.694 776.98 284.962C776.963 283.334 776.945 281.706 776.928 280.078C776.92 279.327 775.817 279.34 775.825 280.091C775.842 281.719 775.861 283.472 775.878 285.1C774.763 283.986 773.649 282.997 772.535 282.008C772.041 281.638 771.435 282.271 771.929 282.641C772.798 283.633 773.667 284.625 774.658 285.616C773.432 285.63 772.206 285.644 770.982 285.783C770.492 285.789 770.5 286.54 770.99 286.535C772.462 286.643 773.81 286.627 775.159 286.612C774.066 287.626 772.975 288.766 772.006 289.905C771.521 290.411 772.263 291.029 772.75 290.647C773.842 289.633 774.936 288.743 775.906 287.73C775.921 289.108 775.937 290.611 776.196 291.985C776.199 292.236 776.689 292.23 776.809 291.978C777.041 290.723 777.026 289.345 777.012 287.968C777.382 288.214 777.631 288.587 778.002 288.833C778.744 289.451 779.486 290.068 780.227 290.561C780.474 290.808 780.838 290.428 780.59 290.181C779.97 289.437 779.471 288.691 778.85 287.947C778.477 287.45 777.983 287.08 777.611 286.709C778.224 286.701 778.715 286.696 779.327 286.689C780.308 286.677 781.043 286.669 782.021 286.407C782.143 286.28 782.137 285.779 781.768 285.658Z" fill="#030229"/>
<path opacity="0.1" d="M655.013 348.87C654.153 348.629 653.295 348.639 652.314 348.65C652.069 348.653 651.824 348.656 651.578 348.659C652.792 347.518 654.006 346.376 654.849 344.989C655.091 344.61 654.596 344.24 654.354 344.494C652.771 345.514 651.437 346.907 650.102 348.175C650.085 346.547 650.068 344.919 650.05 343.291C650.043 342.54 648.939 342.552 648.947 343.304C648.965 344.932 648.983 346.685 649 348.313C647.885 347.199 646.772 346.21 645.658 345.221C645.163 344.851 644.557 345.484 645.052 345.854C645.92 346.846 646.789 347.838 647.78 348.828C646.554 348.842 645.329 348.857 644.104 348.996C643.614 349.002 643.622 349.753 644.112 349.747C645.584 349.856 646.933 349.84 648.281 349.824C647.188 350.839 646.097 351.979 645.129 353.117C644.644 353.624 645.386 354.241 645.872 353.86C646.965 352.845 648.058 351.956 649.028 350.943C649.043 352.32 649.059 353.823 649.319 355.198C649.321 355.448 649.812 355.443 649.932 355.191C650.163 353.936 650.149 352.558 650.134 351.18C650.505 351.427 650.754 351.8 651.124 352.046C651.866 352.663 652.608 353.281 653.349 353.773C653.597 354.021 653.961 353.641 653.713 353.393C653.092 352.649 652.594 351.903 651.973 351.159C651.6 350.663 651.105 350.293 650.734 349.921C651.347 349.914 651.837 349.908 652.45 349.901C653.43 349.89 654.166 349.881 655.144 349.62C655.265 349.493 655.26 348.992 655.013 348.87Z" fill="#030229"/>
<path d="M675.644 307.421C674.288 306.685 673.054 305.948 672.06 304.707C670.942 303.342 670.435 301.72 669.682 300.1C669.682 300.1 669.68 299.975 669.558 299.976L669.435 299.978C669.435 299.978 669.435 299.978 669.314 300.105C669.314 300.105 669.314 300.105 669.315 300.23C668.983 303.615 667.047 306.018 664.618 308.175C664.497 308.302 664.5 308.552 664.624 308.676C667.334 309.897 669.208 313.257 670.096 316.002C670.221 316.252 670.589 316.247 670.709 315.995C671.182 314.362 671.533 312.855 672.376 311.342C673.218 309.829 674.309 308.689 675.648 307.797C675.769 307.67 675.767 307.42 675.644 307.421Z" fill="#605BFF"/>
<path d="M862.897 344.997C861.541 344.261 860.307 343.524 859.435 342.281C858.318 340.916 857.81 339.294 857.057 337.674C857.057 337.674 857.056 337.549 856.933 337.551L856.811 337.552C856.811 337.552 856.811 337.552 856.689 337.679C856.689 337.679 856.689 337.679 856.691 337.804C856.359 341.189 854.423 343.592 851.994 345.749C851.872 345.876 851.875 346.126 851.999 346.25C854.709 347.471 856.584 350.831 857.471 353.577C857.596 353.826 857.964 353.821 858.084 353.569C858.557 351.936 858.909 350.429 859.751 348.916C860.593 347.403 861.684 346.263 863.024 345.371C863.024 345.371 863.021 345.12 862.897 344.997Z" fill="#605BFF"/>
<path d="M773.096 314.195C772.11 313.706 771.369 313.213 770.625 312.345C769.879 311.352 769.499 310.229 768.874 309.109C768.874 309.109 768.874 309.109 768.751 309.11L768.629 309.112C768.629 309.112 768.629 309.112 768.63 309.237C768.41 311.619 767.079 313.263 765.379 314.786C765.258 314.912 765.259 315.038 765.382 315.036C767.352 315.89 768.603 318.255 769.236 320.127C769.239 320.377 769.606 320.373 769.604 320.123C769.837 318.993 770.193 317.861 770.795 316.852C771.397 315.843 772.125 315.083 773.099 314.446C773.221 314.444 773.219 314.194 773.096 314.195Z" fill="#605BFF"/>
<path d="M741.841 336.534C740.115 335.677 738.758 334.816 737.639 333.326C736.272 331.588 735.639 329.717 734.759 327.723C734.759 327.723 734.758 327.598 734.635 327.599L734.513 327.601C734.513 327.601 734.39 327.602 734.392 327.727L734.393 327.852C733.945 331.866 731.648 334.898 728.733 337.437C728.611 337.564 728.615 337.939 728.86 337.937C732.186 339.401 734.435 343.383 735.452 346.753C735.578 347.127 736.069 347.122 736.187 346.745C736.658 344.86 737.251 342.975 738.213 341.21C739.175 339.445 740.508 338.052 742.214 337.03C741.969 337.033 742.087 336.656 741.841 336.534Z" fill="#605BFF"/>
<path d="M712.453 304.981C710.71 302.497 708.969 300.139 706.742 298.162C705.506 297.175 704.269 296.188 702.913 295.453C702.173 295.086 701.435 294.844 700.696 294.477C700.327 294.357 699.958 294.236 699.587 293.99C699.218 293.869 698.97 293.621 698.604 293.751C698.359 293.754 698.237 293.881 698.363 294.129C698.492 294.754 699.231 295.121 699.725 295.491C700.344 295.984 700.961 296.352 701.579 296.846C702.814 297.708 704.05 298.695 705.164 299.683C707.269 301.662 709.007 303.769 710.626 306.129C711.373 307.247 713.201 306.224 712.453 304.981Z" fill="#FF8F6B"/>
<path d="M711.586 355.239C710.581 352.873 708.239 351.649 705.899 350.676C703.56 349.702 700.855 348.858 698.407 349.263C696.081 349.54 693.523 351.072 692.688 353.335C692.092 354.969 691.504 357.354 692.988 358.588C693.731 359.33 695.081 359.439 695.808 358.679C697.022 357.539 695.901 355.8 694.911 354.936C690.827 351.229 683.97 351.936 679.457 354.117C676.651 355.402 674.222 357.558 672.781 360.453C671.578 362.72 670.272 366.74 671.89 369.099C672.139 369.472 672.629 369.466 672.87 369.088C674.199 367.195 674.171 364.442 675.13 362.428C676.089 360.289 677.664 358.519 679.491 357.371C683.264 354.823 689.748 353.495 693.698 356.201C694.193 356.571 695.55 357.431 694.822 358.19C694.216 358.823 693.229 358.209 692.856 357.713C691.357 354.978 694.88 351.932 697.08 351.281C699.279 350.629 701.86 351.224 703.953 352.075C706.289 352.799 709 354.143 710.369 356.129C710.985 356.372 711.837 355.862 711.586 355.239Z" fill="#EF37FF"/>
<path d="M819.16 335.346C819.283 335.345 819.281 335.22 819.159 335.221C819.036 335.223 819.038 335.348 819.16 335.346Z" fill="#3F3937"/>
<path d="M820.231 333.204C822.273 329.174 826.519 324.868 831.315 326.314C833.037 326.794 835.26 328.395 835.038 330.651C834.931 332.154 833.205 331.173 832.585 330.555C831.098 328.945 831.803 326.058 832.274 324.174C832.983 321.662 834.552 319.265 836.62 317.739C838.322 316.342 840.645 315.688 842.726 315.414C845.052 315.136 847.144 315.862 849.356 316.336C850.215 316.451 850.817 315.443 850.198 314.824C848.586 313.091 845.764 312.874 843.561 313.15C841.234 313.428 838.789 314.083 836.842 315.483C832.947 318.158 830.064 323.825 830.481 328.577C830.748 330.702 833.486 334.675 835.792 332.394C836.885 331.38 836.497 329.507 835.994 328.261C835.117 326.394 833.142 325.165 831.299 324.687C825.767 323.25 821.526 328.057 819.492 332.838C819.373 333.214 819.99 333.583 820.231 333.204Z" fill="#EF37FF"/>
<path d="M714.226 328.024C712.484 325.542 710.259 323.691 707.671 322.47C706.317 321.86 704.963 321.375 703.612 321.141C702.384 320.905 700.544 320.802 699.447 321.44C699.203 321.568 699.207 321.944 699.455 322.191C700.442 322.805 701.914 322.913 703.02 323.15C704.372 323.51 705.479 323.872 706.712 324.484C709.052 325.582 711.276 327.183 712.89 329.167C713.51 329.91 714.848 328.893 714.226 328.024Z" fill="#FF8F6B"/>
<path d="M686.254 336.741C687.354 336.478 688.579 336.338 689.682 336.325C690.294 336.318 690.907 336.311 691.52 336.303C691.888 336.299 692.255 336.295 692.499 336.167C692.743 336.039 692.988 336.036 693.232 335.908C693.476 335.78 693.472 335.405 693.225 335.283C692.979 335.161 692.732 335.039 692.609 334.915C692.362 334.793 691.872 334.799 691.626 334.677C691.013 334.684 690.4 334.691 689.666 334.825C688.442 334.964 687.219 335.229 685.997 335.618C685.263 335.752 685.52 336.874 686.254 336.741Z" fill="#FF8F6B"/>
<path d="M816.799 366.566C820.209 364.399 823.867 362.604 827.777 361.432C829.611 360.91 831.566 360.387 833.525 360.113C834.627 359.975 835.606 359.839 836.707 359.701C837.565 359.69 838.423 359.68 839.155 359.296C839.399 359.168 839.395 358.793 839.148 358.671C838.286 358.306 837.43 358.441 836.449 358.453C835.346 358.466 834.367 358.602 833.264 358.615C831.182 358.765 829.102 359.165 827.024 359.69C822.867 360.74 819.21 362.659 815.807 365.452C815.322 365.958 816.068 366.95 816.799 366.566Z" fill="#FF8F6B"/>
<path d="M809.993 360.755C812.902 357.591 816.68 355.419 820.335 353.248C822.163 352.225 824.113 351.075 826.065 350.176C827.163 349.662 828.138 349.15 829.114 348.638C830.089 348.126 831.19 347.862 832.164 347.225C832.407 347.097 832.404 346.721 832.035 346.6C831.051 346.362 829.952 346.75 828.973 346.887C827.748 347.027 826.649 347.415 825.551 347.929C823.355 348.956 821.16 350.109 819.09 351.385C815.068 353.685 811.538 356.105 808.758 359.893C808.274 360.525 809.385 361.263 809.993 360.755Z" fill="#FF8F6B"/>
<path d="M789.87 301.478C789.744 301.104 789.74 300.728 789.612 300.229C789.609 299.978 789.485 299.854 789.484 299.729C789.483 299.604 789.481 299.479 789.357 299.355C789.356 299.23 789.233 299.231 789.232 299.106C789.108 298.982 788.984 298.858 788.861 298.86C788.739 298.861 788.617 298.988 788.496 299.115C788.497 299.24 788.375 299.241 788.376 299.367C788.377 299.492 788.379 299.617 788.38 299.742C788.382 299.993 788.385 300.243 788.51 300.492C788.514 300.868 788.641 301.242 788.767 301.616L788.766 301.491L788.767 301.616C788.769 301.742 788.894 301.991 789.018 302.114C789.142 302.238 789.389 302.361 789.51 302.234C789.633 302.232 789.877 302.104 789.875 301.979C789.875 301.979 789.873 301.729 789.87 301.478Z" fill="#030229"/>
<path d="M794.96 319.46C795.049 316.202 796 313.31 797.073 310.292C797.671 308.782 798.27 307.397 798.992 306.011C799.714 304.624 800.438 303.489 800.791 301.981C800.788 301.731 800.539 301.358 800.296 301.611C799.688 302.12 799.324 302.5 798.839 303.132C798.478 303.762 798.118 304.518 797.756 305.149C797.036 306.66 796.315 308.172 795.719 309.807C794.646 312.825 794.067 316.214 793.979 319.472C794.108 320.096 794.967 320.086 794.96 319.46Z" fill="#FF8F6B"/>
<path d="M805.276 298.297C805.396 298.045 805.517 297.918 805.637 297.666C805.637 297.666 805.639 297.792 805.516 297.793C805.516 297.793 805.515 297.668 805.637 297.666L805.759 297.54C805.88 297.413 805.88 297.413 806.001 297.287C806.242 296.908 806.608 296.653 806.849 296.275C807.09 295.896 807.455 295.642 807.697 295.263C807.817 295.011 808.061 294.883 808.181 294.631C808.179 294.506 808.302 294.505 808.301 294.379C808.422 294.253 808.421 294.128 808.419 294.002C808.539 293.751 808.29 293.378 807.922 293.382C807.8 293.384 807.677 293.385 807.432 293.388C807.309 293.389 807.311 293.515 807.188 293.516C807.188 293.516 807.188 293.516 807.066 293.518C807.188 293.516 807.188 293.516 807.066 293.518C806.82 293.52 806.578 293.774 806.334 293.902C805.846 294.158 805.482 294.538 805.118 294.918C804.754 295.298 804.39 295.678 804.15 296.182C803.909 296.56 803.547 297.065 803.428 297.442C803.187 297.821 803.316 298.445 803.809 298.69C804.546 298.806 805.035 298.675 805.276 298.297Z" fill="#FF8F6B"/>
<path d="M801.238 321.769C801.595 320.763 802.077 319.88 802.434 318.874C802.792 317.868 803.151 316.987 803.631 315.98C804.113 315.097 804.47 314.091 804.952 313.209C805.433 312.326 806.16 311.441 806.272 310.438C806.268 310.062 805.899 309.941 805.654 309.944C804.675 310.206 804.196 311.339 803.591 312.098C802.864 312.983 802.384 313.99 801.903 314.998C801.423 316.006 801.066 317.012 800.709 318.143C800.592 318.646 800.352 319.149 800.358 319.776C800.241 320.278 800.248 320.904 800.253 321.405C800.137 322.032 800.998 322.273 801.238 321.769Z" fill="#FF8F6B"/>
<path d="M807.95 308.038C808.189 307.409 808.551 306.904 808.914 306.399C809.396 305.642 809.633 304.763 810.116 304.131C810.6 303.499 811.211 303.242 811.818 302.734C812.426 302.226 813.034 301.718 813.64 301.085C815.946 298.804 818.622 296.769 821.425 295.108C822.157 294.724 822.888 294.339 823.62 293.955C824.108 293.699 824.838 293.189 824.464 292.568C823.838 291.323 821.403 292.98 820.671 293.364C817.869 295.025 815.564 297.431 813.012 299.59C812.281 300.099 811.675 300.732 811.069 301.365C810.462 301.999 809.981 302.881 809.374 303.514C808.768 304.147 808.036 304.531 807.43 305.164C806.945 305.671 806.585 306.426 806.347 307.18C805.867 308.188 807.349 309.172 807.95 308.038Z" fill="#FF8F6B"/>
<path opacity="0.5" d="M749.943 315.335C750.424 314.327 750.534 313.073 750.399 311.948C750.386 310.695 750.25 309.444 749.993 308.32C749.99 308.069 749.499 308.075 749.501 308.326C749.39 309.454 749.402 310.582 749.415 311.834C749.426 312.836 749.437 313.963 749.078 314.844C748.839 315.473 749.704 315.964 749.943 315.335Z" fill="#EF37FF"/>
<g opacity="0.5">
<path d="M750.013 299.048C750.001 297.921 750.112 296.793 749.979 295.792C749.844 294.666 749.466 293.669 748.841 292.674C748.716 292.425 748.226 292.556 748.353 292.93C748.865 294.929 748.887 297.058 748.909 299.187C748.793 299.814 750.02 299.8 750.013 299.048Z" fill="#EF37FF"/>
</g>
<path opacity="0.5" d="M744.504 288.337C744.249 287.338 743.87 286.34 743.371 285.47C743.121 285.097 742.994 284.597 742.744 284.225C742.495 283.852 742.242 283.103 741.752 283.109C741.506 283.112 741.261 283.115 741.141 283.367C740.901 283.871 741.274 284.367 741.524 284.865C741.774 285.238 742.024 285.736 742.151 286.11C742.65 286.981 743.027 287.853 743.282 288.727C743.535 289.475 744.757 289.085 744.504 288.337Z" fill="#EF37FF"/>
<path opacity="0.5" d="M750.121 286.52C750.356 285.515 750.467 284.387 750.578 283.258C750.573 282.757 750.567 282.131 750.561 281.63C750.556 281.129 750.55 280.503 750.299 280.004C750.172 279.63 749.681 279.636 749.562 280.013C749.322 280.517 749.328 281.143 749.333 281.644C749.339 282.145 749.344 282.646 749.349 283.147C749.359 284.149 749.247 285.153 749.135 286.156C749.137 286.406 749.264 286.781 749.51 286.778C749.758 287.025 750.125 286.896 750.121 286.52Z" fill="#EF37FF"/>
<path opacity="0.5" d="M754.815 290.1C755.048 288.845 755.526 287.712 756.129 286.703C756.732 285.694 757.581 284.807 758.307 283.797C758.427 283.545 758.3 283.171 758.056 283.299C756.711 283.691 755.742 284.829 755.14 285.963C754.416 287.099 754.063 288.481 753.83 289.736C753.593 290.49 754.701 290.853 754.815 290.1Z" fill="#EF37FF"/>
<path d="M835.871 339.289C835.992 339.163 835.991 339.038 836.112 338.911C836.232 338.659 836.352 338.407 836.35 338.157C836.347 337.906 836.346 337.781 836.466 337.529L836.464 337.404C836.463 337.279 836.462 337.154 836.461 337.029C836.458 336.778 836.455 336.528 836.33 336.279C836.328 336.028 836.204 335.905 836.08 335.781C835.829 335.283 835.335 334.913 834.721 334.795C834.967 334.917 835.214 335.04 835.461 335.287C835.214 335.04 834.967 334.917 834.722 334.92C834.475 334.798 834.23 334.801 834.109 334.928C833.864 334.93 833.742 335.057 833.498 335.185C833.254 335.313 833.012 335.567 832.892 335.819C833.257 335.564 833.5 335.31 833.865 335.056C833.742 335.057 833.621 335.184 833.498 335.185C833.254 335.313 833.011 335.441 832.889 335.568C832.768 335.695 832.647 335.821 832.525 335.948C832.527 336.073 832.404 336.075 832.405 336.2C832.407 336.325 832.285 336.452 832.287 336.577C832.408 336.45 832.405 336.2 832.527 336.073C832.528 336.198 832.405 336.2 832.407 336.325C832.408 336.45 832.285 336.452 832.287 336.577C832.165 336.704 832.168 336.954 832.047 337.081C831.927 337.333 831.807 337.584 831.81 337.96C831.69 338.212 831.817 338.586 831.82 338.837C831.945 339.085 832.07 339.334 832.195 339.583C832.32 339.832 832.568 340.08 832.815 340.202C832.939 340.326 833.184 340.323 833.308 340.447C833.677 340.568 834.167 340.562 834.534 340.432C834.655 340.306 834.9 340.303 835.022 340.176C835.51 339.92 835.751 339.541 835.871 339.289Z" fill="#FF8F6B"/>
<path d="M830.989 295.876C830.988 295.751 830.865 295.752 830.864 295.627C830.74 295.503 830.616 295.38 830.615 295.254C830.615 295.254 830.491 295.131 830.368 295.132C830.122 295.01 830.121 294.885 829.751 294.764C829.629 294.765 829.382 294.643 829.26 294.644C829.137 294.646 828.892 294.649 828.892 294.649L828.525 294.778C828.281 294.906 828.16 295.033 828.04 295.285C827.919 295.411 827.919 295.411 827.92 295.537C827.921 295.662 827.799 295.663 827.8 295.789C827.68 296.04 827.561 296.417 827.565 296.793C827.569 297.169 827.694 297.418 827.821 297.792C828.195 298.413 828.812 298.782 829.425 298.775C830.038 298.767 830.77 298.383 831.009 297.754C831.129 297.502 831.247 297.125 831.243 296.75C831.241 296.499 831.116 296.25 830.989 295.876Z" fill="#FF8F6B"/>
<path d="M740.838 311.93C739.819 308.56 740.273 304.922 740.852 301.533C740.85 301.283 740.603 301.16 740.482 301.412C739.288 304.809 738.96 308.696 739.98 312.191C739.986 312.817 740.967 312.555 740.838 311.93Z" fill="#030229"/>
</g>
<defs>
<clipPath id="clip0_0_9">
<rect width="1440" height="900" fill="white"/>
</clipPath>
</defs>
</svg>
